<svg xmlns="http://www.w3.org/2000/svg" xmlns:xlink="http://www.w3.org/1999/xlink" width="1080" zoomAndPan="magnify" viewBox="0 0 810 809.999993" height="1080" preserveAspectRatio="xMidYMid meet" version="1.0"><defs><clipPath id="3cd689a0d7"><path d="M 205.5 295.9375 L 217 295.9375 L 217 307 L 205.5 307 Z M 205.5 295.9375 " clip-rule="nonzero"/></clipPath><clipPath id="a0f1800d67"><path d="M 235 295.9375 L 246 295.9375 L 246 307 L 235 307 Z M 235 295.9375 " clip-rule="nonzero"/></clipPath><clipPath id="f8b2184bd4"><path d="M 265 295.9375 L 276 295.9375 L 276 307 L 265 307 Z M 265 295.9375 " clip-rule="nonzero"/></clipPath><clipPath id="81b76e06df"><path d="M 295 295.9375 L 306 295.9375 L 306 307 L 295 307 Z M 295 295.9375 " clip-rule="nonzero"/></clipPath><clipPath id="6e6d7b5774"><path d="M 325 295.9375 L 336 295.9375 L 336 307 L 325 307 Z M 325 295.9375 " clip-rule="nonzero"/></clipPath><clipPath id="7c8620e15b"><path d="M 354 295.9375 L 366 295.9375 L 366 307 L 354 307 Z M 354 295.9375 " clip-rule="nonzero"/></clipPath><clipPath id="b079db00d9"><path d="M 384 295.9375 L 396 295.9375 L 396 307 L 384 307 Z M 384 295.9375 " clip-rule="nonzero"/></clipPath><clipPath id="955b7ecbf3"><path d="M 205.5 325 L 217 325 L 217 337 L 205.5 337 Z M 205.5 325 " clip-rule="nonzero"/></clipPath><clipPath id="cdce8760c5"><path d="M 205.5 355 L 217 355 L 217 367 L 205.5 367 Z M 205.5 355 " clip-rule="nonzero"/></clipPath><clipPath id="130b1d3503"><path d="M 205.5 385 L 217 385 L 217 396 L 205.5 396 Z M 205.5 385 " clip-rule="nonzero"/></clipPath><clipPath id="9845625ee8"><path d="M 205.5 415 L 217 415 L 217 426 L 205.5 426 Z M 205.5 415 " clip-rule="nonzero"/></clipPath><clipPath id="767784b1b9"><path d="M 414 295.9375 L 426 295.9375 L 426 307 L 414 307 Z M 414 295.9375 " clip-rule="nonzero"/></clipPath><clipPath id="72c3cbf46a"><path d="M 444 295.9375 L 456 295.9375 L 456 307 L 444 307 Z M 444 295.9375 " clip-rule="nonzero"/></clipPath><clipPath id="d9958b0811"><path d="M 474 295.9375 L 485 295.9375 L 485 307 L 474 307 Z M 474 295.9375 " clip-rule="nonzero"/></clipPath><clipPath id="6760504281"><path d="M 504 295.9375 L 515 295.9375 L 515 307 L 504 307 Z M 504 295.9375 " clip-rule="nonzero"/></clipPath><clipPath id="12734690e2"><path d="M 534 295.9375 L 545 295.9375 L 545 307 L 534 307 Z M 534 295.9375 " clip-rule="nonzero"/></clipPath><clipPath id="1339529d45"><path d="M 564 295.9375 L 575 295.9375 L 575 307 L 564 307 Z M 564 295.9375 " clip-rule="nonzero"/></clipPath><clipPath id="3e240c44c8"><path d="M 593 295.9375 L 604.5 295.9375 L 604.5 307 L 593 307 Z M 593 295.9375 " clip-rule="nonzero"/></clipPath><clipPath id="54aa462c81"><path d="M 593 325 L 604.5 325 L 604.5 337 L 593 337 Z M 593 325 " clip-rule="nonzero"/></clipPath><clipPath id="b32bebc405"><path d="M 593 355 L 604.5 355 L 604.5 367 L 593 367 Z M 593 355 " clip-rule="nonzero"/></clipPath><clipPath id="01a77a978c"><path d="M 593 385 L 604.5 385 L 604.5 396 L 593 396 Z M 593 385 " clip-rule="nonzero"/></clipPath><clipPath id="cab176282f"><path d="M 593 415 L 604.5 415 L 604.5 426 L 593 426 Z M 593 415 " clip-rule="nonzero"/></clipPath></defs><rect x="-81" width="972" fill="#ffffff" y="-80.999999" height="971.999992" fill-opacity="1"/><rect x="-81" width="972" fill="#ffffff" y="-80.999999" height="971.999992" fill-opacity="1"/><g clip-path="url(#3cd689a0d7)"><path fill="#60ace3" d="M 210.859375 295.9375 C 207.964844 295.9375 205.609375 298.292969 205.609375 301.1875 C 205.609375 304.085938 207.964844 306.441406 210.859375 306.441406 C 213.75 306.441406 216.105469 304.085938 216.105469 301.1875 C 216.105469 298.292969 213.75 295.9375 210.859375 295.9375 " fill-opacity="1" fill-rule="nonzero"/></g><g clip-path="url(#a0f1800d67)"><path fill="#60ace3" d="M 240.730469 295.9375 C 237.835938 295.9375 235.484375 298.292969 235.484375 301.1875 C 235.484375 304.085938 237.835938 306.441406 240.730469 306.441406 C 243.625 306.441406 245.976562 304.085938 245.976562 301.1875 C 245.976562 298.292969 243.625 295.9375 240.730469 295.9375 " fill-opacity="1" fill-rule="nonzero"/></g><g clip-path="url(#f8b2184bd4)"><path fill="#60ace3" d="M 270.601562 295.9375 C 267.707031 295.9375 265.355469 298.292969 265.355469 301.1875 C 265.355469 304.085938 267.707031 306.441406 270.601562 306.441406 C 273.496094 306.441406 275.847656 304.085938 275.847656 301.1875 C 275.847656 298.292969 273.496094 295.9375 270.601562 295.9375 " fill-opacity="1" fill-rule="nonzero"/></g><g clip-path="url(#81b76e06df)"><path fill="#60ace3" d="M 300.476562 295.9375 C 297.582031 295.9375 295.226562 298.292969 295.226562 301.1875 C 295.226562 304.085938 297.582031 306.441406 300.476562 306.441406 C 303.371094 306.441406 305.722656 304.085938 305.722656 301.1875 C 305.722656 298.292969 303.371094 295.9375 300.476562 295.9375 " fill-opacity="1" fill-rule="nonzero"/></g><g clip-path="url(#6e6d7b5774)"><path fill="#60ace3" d="M 330.347656 295.9375 C 327.457031 295.9375 325.101562 298.292969 325.101562 301.1875 C 325.101562 304.085938 327.457031 306.441406 330.347656 306.441406 C 333.242188 306.441406 335.59375 304.085938 335.59375 301.1875 C 335.59375 298.292969 333.242188 295.9375 330.347656 295.9375 " fill-opacity="1" fill-rule="nonzero"/></g><g clip-path="url(#7c8620e15b)"><path fill="#60ace3" d="M 360.222656 295.9375 C 357.328125 295.9375 354.972656 298.292969 354.972656 301.1875 C 354.972656 304.085938 357.328125 306.441406 360.222656 306.441406 C 363.117188 306.441406 365.46875 304.085938 365.46875 301.1875 C 365.46875 298.292969 363.117188 295.9375 360.222656 295.9375 " fill-opacity="1" fill-rule="nonzero"/></g><g clip-path="url(#b079db00d9)"><path fill="#60ace3" d="M 390.09375 295.9375 C 387.199219 295.9375 384.847656 298.292969 384.847656 301.1875 C 384.847656 304.085938 387.199219 306.441406 390.09375 306.441406 C 392.988281 306.441406 395.34375 304.085938 395.34375 301.1875 C 395.34375 298.292969 392.988281 295.9375 390.09375 295.9375 " fill-opacity="1" fill-rule="nonzero"/></g><g clip-path="url(#955b7ecbf3)"><path fill="#60ace3" d="M 210.859375 325.835938 C 207.964844 325.835938 205.609375 328.195312 205.609375 331.09375 C 205.609375 333.988281 207.964844 336.347656 210.859375 336.347656 C 213.75 336.347656 216.105469 333.988281 216.105469 331.09375 C 216.105469 328.195312 213.75 325.835938 210.859375 325.835938 " fill-opacity="1" fill-rule="nonzero"/></g><path fill="#60ace3" d="M 240.730469 325.835938 C 237.835938 325.835938 235.484375 328.195312 235.484375 331.09375 C 235.484375 333.988281 237.835938 336.347656 240.730469 336.347656 C 243.625 336.347656 245.976562 333.988281 245.976562 331.09375 C 245.976562 328.195312 243.625 325.835938 240.730469 325.835938 " fill-opacity="1" fill-rule="nonzero"/><path fill="#60ace3" d="M 270.601562 325.835938 C 267.707031 325.835938 265.355469 328.195312 265.355469 331.09375 C 265.355469 333.988281 267.707031 336.347656 270.601562 336.347656 C 273.496094 336.347656 275.847656 333.988281 275.847656 331.09375 C 275.847656 328.195312 273.496094 325.835938 270.601562 325.835938 " fill-opacity="1" fill-rule="nonzero"/><path fill="#60ace3" d="M 300.476562 325.835938 C 297.582031 325.835938 295.226562 328.195312 295.226562 331.09375 C 295.226562 333.988281 297.582031 336.347656 300.476562 336.347656 C 303.371094 336.347656 305.722656 333.988281 305.722656 331.09375 C 305.722656 328.195312 303.371094 325.835938 300.476562 325.835938 " fill-opacity="1" fill-rule="nonzero"/><path fill="#60ace3" d="M 330.347656 325.835938 C 327.457031 325.835938 325.101562 328.195312 325.101562 331.09375 C 325.101562 333.988281 327.457031 336.347656 330.347656 336.347656 C 333.242188 336.347656 335.59375 333.988281 335.59375 331.09375 C 335.59375 328.195312 333.242188 325.835938 330.347656 325.835938 " fill-opacity="1" fill-rule="nonzero"/><path fill="#60ace3" d="M 360.222656 325.835938 C 357.328125 325.835938 354.972656 328.195312 354.972656 331.09375 C 354.972656 333.988281 357.328125 336.347656 360.222656 336.347656 C 363.117188 336.347656 365.46875 333.988281 365.46875 331.09375 C 365.46875 328.195312 363.117188 325.835938 360.222656 325.835938 " fill-opacity="1" fill-rule="nonzero"/><path fill="#60ace3" d="M 390.09375 325.835938 C 387.199219 325.835938 384.847656 328.195312 384.847656 331.09375 C 384.847656 333.988281 387.199219 336.347656 390.09375 336.347656 C 392.988281 336.347656 395.34375 333.988281 395.34375 331.09375 C 395.34375 328.195312 392.988281 325.835938 390.09375 325.835938 " fill-opacity="1" fill-rule="nonzero"/><g clip-path="url(#cdce8760c5)"><path fill="#60ace3" d="M 210.859375 355.554688 C 207.964844 355.554688 205.609375 357.910156 205.609375 360.808594 C 205.609375 363.707031 207.964844 366.0625 210.859375 366.0625 C 213.75 366.0625 216.105469 363.707031 216.105469 360.808594 C 216.105469 357.910156 213.75 355.554688 210.859375 355.554688 " fill-opacity="1" fill-rule="nonzero"/></g><path fill="#60ace3" d="M 240.730469 355.554688 C 237.835938 355.554688 235.484375 357.910156 235.484375 360.808594 C 235.484375 363.707031 237.835938 366.0625 240.730469 366.0625 C 243.625 366.0625 245.976562 363.707031 245.976562 360.808594 C 245.976562 357.910156 243.625 355.554688 240.730469 355.554688 " fill-opacity="1" fill-rule="nonzero"/><path fill="#60ace3" d="M 270.601562 355.554688 C 267.707031 355.554688 265.355469 357.910156 265.355469 360.808594 C 265.355469 363.707031 267.707031 366.0625 270.601562 366.0625 C 273.496094 366.0625 275.847656 363.707031 275.847656 360.808594 C 275.847656 357.910156 273.496094 355.554688 270.601562 355.554688 " fill-opacity="1" fill-rule="nonzero"/><path fill="#60ace3" d="M 300.476562 355.554688 C 297.582031 355.554688 295.226562 357.910156 295.226562 360.808594 C 295.226562 363.707031 297.582031 366.0625 300.476562 366.0625 C 303.371094 366.0625 305.722656 363.707031 305.722656 360.808594 C 305.722656 357.910156 303.371094 355.554688 300.476562 355.554688 " fill-opacity="1" fill-rule="nonzero"/><path fill="#60ace3" d="M 330.347656 355.554688 C 327.457031 355.554688 325.101562 357.910156 325.101562 360.808594 C 325.101562 363.707031 327.457031 366.0625 330.347656 366.0625 C 333.242188 366.0625 335.59375 363.707031 335.59375 360.808594 C 335.59375 357.910156 333.242188 355.554688 330.347656 355.554688 " fill-opacity="1" fill-rule="nonzero"/><path fill="#60ace3" d="M 360.222656 355.554688 C 357.328125 355.554688 354.972656 357.910156 354.972656 360.808594 C 354.972656 363.707031 357.328125 366.0625 360.222656 366.0625 C 363.117188 366.0625 365.46875 363.707031 365.46875 360.808594 C 365.46875 357.910156 363.117188 355.554688 360.222656 355.554688 " fill-opacity="1" fill-rule="nonzero"/><path fill="#60ace3" d="M 390.09375 355.554688 C 387.199219 355.554688 384.847656 357.910156 384.847656 360.808594 C 384.847656 363.707031 387.199219 366.0625 390.09375 366.0625 C 392.988281 366.0625 395.34375 363.707031 395.34375 360.808594 C 395.34375 357.910156 392.988281 355.554688 390.09375 355.554688 " fill-opacity="1" fill-rule="nonzero"/><g clip-path="url(#130b1d3503)"><path fill="#60ace3" d="M 210.859375 385.464844 C 207.964844 385.464844 205.609375 387.820312 205.609375 390.71875 C 205.609375 393.617188 207.964844 395.972656 210.859375 395.972656 C 213.75 395.972656 216.105469 393.617188 216.105469 390.71875 C 216.105469 387.820312 213.75 385.464844 210.859375 385.464844 " fill-opacity="1" fill-rule="nonzero"/></g><path fill="#60ace3" d="M 240.730469 385.464844 C 237.835938 385.464844 235.484375 387.820312 235.484375 390.71875 C 235.484375 393.617188 237.835938 395.972656 240.730469 395.972656 C 243.625 395.972656 245.976562 393.617188 245.976562 390.71875 C 245.976562 387.820312 243.625 385.464844 240.730469 385.464844 " fill-opacity="1" fill-rule="nonzero"/><path fill="#60ace3" d="M 270.601562 385.464844 C 267.707031 385.464844 265.355469 387.820312 265.355469 390.71875 C 265.355469 393.617188 267.707031 395.972656 270.601562 395.972656 C 273.496094 395.972656 275.847656 393.617188 275.847656 390.71875 C 275.847656 387.820312 273.496094 385.464844 270.601562 385.464844 " fill-opacity="1" fill-rule="nonzero"/><path fill="#60ace3" d="M 300.476562 385.464844 C 297.582031 385.464844 295.226562 387.820312 295.226562 390.71875 C 295.226562 393.617188 297.582031 395.972656 300.476562 395.972656 C 303.371094 395.972656 305.722656 393.617188 305.722656 390.71875 C 305.722656 387.820312 303.371094 385.464844 300.476562 385.464844 " fill-opacity="1" fill-rule="nonzero"/><path fill="#60ace3" d="M 330.347656 385.464844 C 327.457031 385.464844 325.101562 387.820312 325.101562 390.71875 C 325.101562 393.617188 327.457031 395.972656 330.347656 395.972656 C 333.242188 395.972656 335.59375 393.617188 335.59375 390.71875 C 335.59375 387.820312 333.242188 385.464844 330.347656 385.464844 " fill-opacity="1" fill-rule="nonzero"/><path fill="#60ace3" d="M 360.222656 385.464844 C 357.328125 385.464844 354.972656 387.820312 354.972656 390.71875 C 354.972656 393.617188 357.328125 395.972656 360.222656 395.972656 C 363.117188 395.972656 365.46875 393.617188 365.46875 390.71875 C 365.46875 387.820312 363.117188 385.464844 360.222656 385.464844 " fill-opacity="1" fill-rule="nonzero"/><path fill="#60ace3" d="M 390.09375 385.464844 C 387.199219 385.464844 384.847656 387.820312 384.847656 390.71875 C 384.847656 393.617188 387.199219 395.972656 390.09375 395.972656 C 392.988281 395.972656 395.34375 393.617188 395.34375 390.71875 C 395.34375 387.820312 392.988281 385.464844 390.09375 385.464844 " fill-opacity="1" fill-rule="nonzero"/><g clip-path="url(#9845625ee8)"><path fill="#60ace3" d="M 210.859375 415.367188 C 207.964844 415.367188 205.609375 417.722656 205.609375 420.621094 C 205.609375 423.515625 207.964844 425.875 210.859375 425.875 C 213.75 425.875 216.105469 423.515625 216.105469 420.621094 C 216.105469 417.722656 213.75 415.367188 210.859375 415.367188 " fill-opacity="1" fill-rule="nonzero"/></g><path fill="#60ace3" d="M 240.730469 415.367188 C 237.835938 415.367188 235.484375 417.722656 235.484375 420.621094 C 235.484375 423.515625 237.835938 425.875 240.730469 425.875 C 243.625 425.875 245.976562 423.515625 245.976562 420.621094 C 245.976562 417.722656 243.625 415.367188 240.730469 415.367188 " fill-opacity="1" fill-rule="nonzero"/><path fill="#60ace3" d="M 270.601562 415.367188 C 267.707031 415.367188 265.355469 417.722656 265.355469 420.621094 C 265.355469 423.515625 267.707031 425.875 270.601562 425.875 C 273.496094 425.875 275.847656 423.515625 275.847656 420.621094 C 275.847656 417.722656 273.496094 415.367188 270.601562 415.367188 " fill-opacity="1" fill-rule="nonzero"/><path fill="#60ace3" d="M 300.476562 415.367188 C 297.582031 415.367188 295.226562 417.722656 295.226562 420.621094 C 295.226562 423.515625 297.582031 425.875 300.476562 425.875 C 303.371094 425.875 305.722656 423.515625 305.722656 420.621094 C 305.722656 417.722656 303.371094 415.367188 300.476562 415.367188 " fill-opacity="1" fill-rule="nonzero"/><path fill="#60ace3" d="M 330.347656 415.367188 C 327.457031 415.367188 325.101562 417.722656 325.101562 420.621094 C 325.101562 423.515625 327.457031 425.875 330.347656 425.875 C 333.242188 425.875 335.59375 423.515625 335.59375 420.621094 C 335.59375 417.722656 333.242188 415.367188 330.347656 415.367188 " fill-opacity="1" fill-rule="nonzero"/><path fill="#60ace3" d="M 360.222656 415.367188 C 357.328125 415.367188 354.972656 417.722656 354.972656 420.621094 C 354.972656 423.515625 357.328125 425.875 360.222656 425.875 C 363.117188 425.875 365.46875 423.515625 365.46875 420.621094 C 365.46875 417.722656 363.117188 415.367188 360.222656 415.367188 " fill-opacity="1" fill-rule="nonzero"/><path fill="#60ace3" d="M 390.09375 415.367188 C 387.199219 415.367188 384.847656 417.722656 384.847656 420.621094 C 384.847656 423.515625 387.199219 425.875 390.09375 425.875 C 392.988281 425.875 395.34375 423.515625 395.34375 420.621094 C 395.34375 417.722656 392.988281 415.367188 390.09375 415.367188 " fill-opacity="1" fill-rule="nonzero"/><g clip-path="url(#767784b1b9)"><path fill="#60ace3" d="M 419.953125 295.9375 C 417.0625 295.9375 414.707031 298.292969 414.707031 301.1875 C 414.707031 304.085938 417.0625 306.441406 419.953125 306.441406 C 422.847656 306.441406 425.203125 304.085938 425.203125 301.1875 C 425.203125 298.292969 422.847656 295.9375 419.953125 295.9375 " fill-opacity="1" fill-rule="nonzero"/></g><g clip-path="url(#72c3cbf46a)"><path fill="#60ace3" d="M 449.828125 295.9375 C 446.933594 295.9375 444.582031 298.292969 444.582031 301.1875 C 444.582031 304.085938 446.933594 306.441406 449.828125 306.441406 C 452.722656 306.441406 455.074219 304.085938 455.074219 301.1875 C 455.074219 298.292969 452.722656 295.9375 449.828125 295.9375 " fill-opacity="1" fill-rule="nonzero"/></g><g clip-path="url(#d9958b0811)"><path fill="#60ace3" d="M 479.703125 295.9375 C 476.808594 295.9375 474.453125 298.292969 474.453125 301.1875 C 474.453125 304.085938 476.808594 306.441406 479.703125 306.441406 C 482.59375 306.441406 484.949219 304.085938 484.949219 301.1875 C 484.949219 298.292969 482.59375 295.9375 479.703125 295.9375 " fill-opacity="1" fill-rule="nonzero"/></g><g clip-path="url(#6760504281)"><path fill="#60ace3" d="M 509.574219 295.9375 C 506.679688 295.9375 504.324219 298.292969 504.324219 301.1875 C 504.324219 304.085938 506.679688 306.441406 509.574219 306.441406 C 512.46875 306.441406 514.820312 304.085938 514.820312 301.1875 C 514.820312 298.292969 512.46875 295.9375 509.574219 295.9375 " fill-opacity="1" fill-rule="nonzero"/></g><g clip-path="url(#12734690e2)"><path fill="#60ace3" d="M 539.445312 295.9375 C 536.554688 295.9375 534.199219 298.292969 534.199219 301.1875 C 534.199219 304.085938 536.554688 306.441406 539.445312 306.441406 C 542.339844 306.441406 544.695312 304.085938 544.695312 301.1875 C 544.695312 298.292969 542.339844 295.9375 539.445312 295.9375 " fill-opacity="1" fill-rule="nonzero"/></g><g clip-path="url(#1339529d45)"><path fill="#60ace3" d="M 569.320312 295.9375 C 566.425781 295.9375 564.074219 298.292969 564.074219 301.1875 C 564.074219 304.085938 566.425781 306.441406 569.320312 306.441406 C 572.210938 306.441406 574.566406 304.085938 574.566406 301.1875 C 574.566406 298.292969 572.210938 295.9375 569.320312 295.9375 " fill-opacity="1" fill-rule="nonzero"/></g><g clip-path="url(#3e240c44c8)"><path fill="#60ace3" d="M 599.191406 306.441406 C 602.085938 306.441406 604.4375 304.085938 604.4375 301.1875 C 604.4375 298.292969 602.085938 295.9375 599.191406 295.9375 C 596.300781 295.9375 593.945312 298.292969 593.945312 301.1875 C 593.945312 304.085938 596.300781 306.441406 599.191406 306.441406 " fill-opacity="1" fill-rule="nonzero"/></g><path fill="#60ace3" d="M 419.953125 325.835938 C 417.0625 325.835938 414.707031 328.195312 414.707031 331.09375 C 414.707031 333.988281 417.0625 336.347656 419.953125 336.347656 C 422.847656 336.347656 425.203125 333.988281 425.203125 331.09375 C 425.203125 328.195312 422.847656 325.835938 419.953125 325.835938 " fill-opacity="1" fill-rule="nonzero"/><path fill="#60ace3" d="M 449.828125 325.835938 C 446.933594 325.835938 444.582031 328.195312 444.582031 331.09375 C 444.582031 333.988281 446.933594 336.347656 449.828125 336.347656 C 452.722656 336.347656 455.074219 333.988281 455.074219 331.09375 C 455.074219 328.195312 452.722656 325.835938 449.828125 325.835938 " fill-opacity="1" fill-rule="nonzero"/><path fill="#60ace3" d="M 479.703125 325.835938 C 476.808594 325.835938 474.453125 328.195312 474.453125 331.09375 C 474.453125 333.988281 476.808594 336.347656 479.703125 336.347656 C 482.59375 336.347656 484.949219 333.988281 484.949219 331.09375 C 484.949219 328.195312 482.59375 325.835938 479.703125 325.835938 " fill-opacity="1" fill-rule="nonzero"/><path fill="#60ace3" d="M 509.574219 325.835938 C 506.679688 325.835938 504.324219 328.195312 504.324219 331.09375 C 504.324219 333.988281 506.679688 336.347656 509.574219 336.347656 C 512.46875 336.347656 514.820312 333.988281 514.820312 331.09375 C 514.820312 328.195312 512.46875 325.835938 509.574219 325.835938 " fill-opacity="1" fill-rule="nonzero"/><path fill="#60ace3" d="M 539.445312 325.835938 C 536.554688 325.835938 534.199219 328.195312 534.199219 331.09375 C 534.199219 333.988281 536.554688 336.347656 539.445312 336.347656 C 542.339844 336.347656 544.695312 333.988281 544.695312 331.09375 C 544.695312 328.195312 542.339844 325.835938 539.445312 325.835938 " fill-opacity="1" fill-rule="nonzero"/><path fill="#60ace3" d="M 569.320312 325.835938 C 566.425781 325.835938 564.074219 328.195312 564.074219 331.09375 C 564.074219 333.988281 566.425781 336.347656 569.320312 336.347656 C 572.210938 336.347656 574.566406 333.988281 574.566406 331.09375 C 574.566406 328.195312 572.210938 325.835938 569.320312 325.835938 " fill-opacity="1" fill-rule="nonzero"/><g clip-path="url(#54aa462c81)"><path fill="#60ace3" d="M 599.191406 325.835938 C 596.300781 325.835938 593.945312 328.195312 593.945312 331.09375 C 593.945312 333.988281 596.300781 336.347656 599.191406 336.347656 C 602.085938 336.347656 604.4375 333.988281 604.4375 331.09375 C 604.4375 328.195312 602.085938 325.835938 599.191406 325.835938 " fill-opacity="1" fill-rule="nonzero"/></g><path fill="#60ace3" d="M 419.953125 355.554688 C 417.0625 355.554688 414.707031 357.910156 414.707031 360.808594 C 414.707031 363.707031 417.0625 366.0625 419.953125 366.0625 C 422.847656 366.0625 425.203125 363.707031 425.203125 360.808594 C 425.203125 357.910156 422.847656 355.554688 419.953125 355.554688 " fill-opacity="1" fill-rule="nonzero"/><path fill="#60ace3" d="M 449.828125 355.554688 C 446.933594 355.554688 444.582031 357.910156 444.582031 360.808594 C 444.582031 363.707031 446.933594 366.0625 449.828125 366.0625 C 452.722656 366.0625 455.074219 363.707031 455.074219 360.808594 C 455.074219 357.910156 452.722656 355.554688 449.828125 355.554688 " fill-opacity="1" fill-rule="nonzero"/><path fill="#60ace3" d="M 479.703125 355.554688 C 476.808594 355.554688 474.453125 357.910156 474.453125 360.808594 C 474.453125 363.707031 476.808594 366.0625 479.703125 366.0625 C 482.59375 366.0625 484.949219 363.707031 484.949219 360.808594 C 484.949219 357.910156 482.59375 355.554688 479.703125 355.554688 " fill-opacity="1" fill-rule="nonzero"/><path fill="#60ace3" d="M 509.574219 355.554688 C 506.679688 355.554688 504.324219 357.910156 504.324219 360.808594 C 504.324219 363.707031 506.679688 366.0625 509.574219 366.0625 C 512.46875 366.0625 514.820312 363.707031 514.820312 360.808594 C 514.820312 357.910156 512.46875 355.554688 509.574219 355.554688 " fill-opacity="1" fill-rule="nonzero"/><path fill="#60ace3" d="M 539.445312 355.554688 C 536.554688 355.554688 534.199219 357.910156 534.199219 360.808594 C 534.199219 363.707031 536.554688 366.0625 539.445312 366.0625 C 542.339844 366.0625 544.695312 363.707031 544.695312 360.808594 C 544.695312 357.910156 542.339844 355.554688 539.445312 355.554688 " fill-opacity="1" fill-rule="nonzero"/><path fill="#60ace3" d="M 569.320312 355.554688 C 566.425781 355.554688 564.074219 357.910156 564.074219 360.808594 C 564.074219 363.707031 566.425781 366.0625 569.320312 366.0625 C 572.210938 366.0625 574.566406 363.707031 574.566406 360.808594 C 574.566406 357.910156 572.210938 355.554688 569.320312 355.554688 " fill-opacity="1" fill-rule="nonzero"/><g clip-path="url(#b32bebc405)"><path fill="#60ace3" d="M 599.191406 355.554688 C 596.300781 355.554688 593.945312 357.910156 593.945312 360.808594 C 593.945312 363.707031 596.300781 366.0625 599.191406 366.0625 C 602.085938 366.0625 604.4375 363.707031 604.4375 360.808594 C 604.4375 357.910156 602.085938 355.554688 599.191406 355.554688 " fill-opacity="1" fill-rule="nonzero"/></g><path fill="#60ace3" d="M 419.953125 385.464844 C 417.0625 385.464844 414.707031 387.820312 414.707031 390.71875 C 414.707031 393.617188 417.0625 395.972656 419.953125 395.972656 C 422.847656 395.972656 425.203125 393.617188 425.203125 390.71875 C 425.203125 387.820312 422.847656 385.464844 419.953125 385.464844 " fill-opacity="1" fill-rule="nonzero"/><path fill="#60ace3" d="M 449.828125 385.464844 C 446.933594 385.464844 444.582031 387.820312 444.582031 390.71875 C 444.582031 393.617188 446.933594 395.972656 449.828125 395.972656 C 452.722656 395.972656 455.074219 393.617188 455.074219 390.71875 C 455.074219 387.820312 452.722656 385.464844 449.828125 385.464844 " fill-opacity="1" fill-rule="nonzero"/><path fill="#60ace3" d="M 479.703125 385.464844 C 476.808594 385.464844 474.453125 387.820312 474.453125 390.71875 C 474.453125 393.617188 476.808594 395.972656 479.703125 395.972656 C 482.59375 395.972656 484.949219 393.617188 484.949219 390.71875 C 484.949219 387.820312 482.59375 385.464844 479.703125 385.464844 " fill-opacity="1" fill-rule="nonzero"/><path fill="#60ace3" d="M 509.574219 385.464844 C 506.679688 385.464844 504.324219 387.820312 504.324219 390.71875 C 504.324219 393.617188 506.679688 395.972656 509.574219 395.972656 C 512.46875 395.972656 514.820312 393.617188 514.820312 390.71875 C 514.820312 387.820312 512.46875 385.464844 509.574219 385.464844 " fill-opacity="1" fill-rule="nonzero"/><path fill="#60ace3" d="M 539.445312 385.464844 C 536.554688 385.464844 534.199219 387.820312 534.199219 390.71875 C 534.199219 393.617188 536.554688 395.972656 539.445312 395.972656 C 542.339844 395.972656 544.695312 393.617188 544.695312 390.71875 C 544.695312 387.820312 542.339844 385.464844 539.445312 385.464844 " fill-opacity="1" fill-rule="nonzero"/><path fill="#60ace3" d="M 569.320312 385.464844 C 566.425781 385.464844 564.074219 387.820312 564.074219 390.71875 C 564.074219 393.617188 566.425781 395.972656 569.320312 395.972656 C 572.210938 395.972656 574.566406 393.617188 574.566406 390.71875 C 574.566406 387.820312 572.210938 385.464844 569.320312 385.464844 " fill-opacity="1" fill-rule="nonzero"/><g clip-path="url(#01a77a978c)"><path fill="#60ace3" d="M 599.191406 385.464844 C 596.300781 385.464844 593.945312 387.820312 593.945312 390.71875 C 593.945312 393.617188 596.300781 395.972656 599.191406 395.972656 C 602.085938 395.972656 604.4375 393.617188 604.4375 390.71875 C 604.4375 387.820312 602.085938 385.464844 599.191406 385.464844 " fill-opacity="1" fill-rule="nonzero"/></g><path fill="#60ace3" d="M 419.953125 415.367188 C 417.0625 415.367188 414.707031 417.722656 414.707031 420.621094 C 414.707031 423.515625 417.0625 425.875 419.953125 425.875 C 422.847656 425.875 425.203125 423.515625 425.203125 420.621094 C 425.203125 417.722656 422.847656 415.367188 419.953125 415.367188 " fill-opacity="1" fill-rule="nonzero"/><path fill="#60ace3" d="M 449.828125 415.367188 C 446.933594 415.367188 444.582031 417.722656 444.582031 420.621094 C 444.582031 423.515625 446.933594 425.875 449.828125 425.875 C 452.722656 425.875 455.074219 423.515625 455.074219 420.621094 C 455.074219 417.722656 452.722656 415.367188 449.828125 415.367188 " fill-opacity="1" fill-rule="nonzero"/><path fill="#60ace3" d="M 479.703125 415.367188 C 476.808594 415.367188 474.453125 417.722656 474.453125 420.621094 C 474.453125 423.515625 476.808594 425.875 479.703125 425.875 C 482.59375 425.875 484.949219 423.515625 484.949219 420.621094 C 484.949219 417.722656 482.59375 415.367188 479.703125 415.367188 " fill-opacity="1" fill-rule="nonzero"/><path fill="#60ace3" d="M 509.574219 415.367188 C 506.679688 415.367188 504.324219 417.722656 504.324219 420.621094 C 504.324219 423.515625 506.679688 425.875 509.574219 425.875 C 512.46875 425.875 514.820312 423.515625 514.820312 420.621094 C 514.820312 417.722656 512.46875 415.367188 509.574219 415.367188 " fill-opacity="1" fill-rule="nonzero"/><path fill="#60ace3" d="M 539.445312 415.367188 C 536.554688 415.367188 534.199219 417.722656 534.199219 420.621094 C 534.199219 423.515625 536.554688 425.875 539.445312 425.875 C 542.339844 425.875 544.695312 423.515625 544.695312 420.621094 C 544.695312 417.722656 542.339844 415.367188 539.445312 415.367188 " fill-opacity="1" fill-rule="nonzero"/><path fill="#60ace3" d="M 569.320312 415.367188 C 566.425781 415.367188 564.074219 417.722656 564.074219 420.621094 C 564.074219 423.515625 566.425781 425.875 569.320312 425.875 C 572.210938 425.875 574.566406 423.515625 574.566406 420.621094 C 574.566406 417.722656 572.210938 415.367188 569.320312 415.367188 " fill-opacity="1" fill-rule="nonzero"/><g clip-path="url(#cab176282f)"><path fill="#60ace3" d="M 599.191406 415.367188 C 596.300781 415.367188 593.945312 417.722656 593.945312 420.621094 C 593.945312 423.515625 596.300781 425.875 599.191406 425.875 C 602.085938 425.875 604.4375 423.515625 604.4375 420.621094 C 604.4375 417.722656 602.085938 415.367188 599.191406 415.367188 " fill-opacity="1" fill-rule="nonzero"/></g></svg>